<svg width="599" height="272" viewBox="0 0 599 272" fill="none" xmlns="http://www.w3.org/2000/svg">
<path d="M20 40L20 240" stroke="white"/>
<path d="M578 31L578 240" stroke="white"/>
<path d="M28 257L578 257" stroke="white"/>
<path d="M28 17L568 17" stroke="white"/>
<rect x="559.5" y="0.5" width="39" height="39" fill="#236DFC" stroke="white"/>
<rect x="559.5" y="232.5" width="39" height="39" fill="#236DFC" stroke="white"/>
<rect x="0.5" y="232.5" width="39" height="39" fill="#236DFC" stroke="white"/>
<rect x="0.5" y="0.5" width="39" height="39" fill="#236DFC" stroke="white"/>
<path d="M144.224 121.536C143.669 117.995 142.475 115.328 140.64 113.536C138.848 111.744 136.459 110.827 133.472 110.784C131.253 110.784 129.312 111.296 127.648 112.32C125.984 113.344 124.597 114.709 123.488 116.416C122.421 118.123 121.611 120.064 121.056 122.24C120.544 124.416 120.288 126.656 120.288 128.96C120.288 132.629 120.8 135.893 121.824 138.752C122.891 141.568 124.427 143.787 126.432 145.408C128.437 147.029 130.869 147.84 133.728 147.84C136.416 147.84 139.083 147.157 141.728 145.792C144.373 144.384 146.592 142.443 148.384 139.968L151.456 142.784C149.365 145.643 147.168 147.819 144.864 149.312C142.56 150.763 140.299 151.744 138.08 152.256C135.904 152.768 133.941 153.024 132.192 153.024C128.907 153.024 125.92 152.448 123.232 151.296C120.544 150.101 118.219 148.48 116.256 146.432C114.336 144.341 112.843 141.931 111.776 139.2C110.752 136.427 110.24 133.44 110.24 130.24C110.24 127.339 110.709 124.459 111.648 121.6C112.587 118.741 113.973 116.16 115.808 113.856C117.685 111.509 120.032 109.653 122.848 108.288C125.664 106.88 128.928 106.176 132.64 106.176C134.304 106.176 136.117 106.453 138.08 107.008C140.085 107.52 141.963 108.288 143.712 109.312L143.456 106.624H148.384V121.536H144.224ZM172.479 152C172.393 151.403 172.329 150.912 172.287 150.528C172.287 150.101 172.265 149.611 172.223 149.056C170.772 150.507 169.236 151.531 167.615 152.128C165.993 152.725 164.351 153.024 162.687 153.024C159.956 153.024 157.823 152.213 156.286 150.592C154.751 148.971 153.983 146.944 153.983 144.512C153.983 142.464 154.495 140.715 155.519 139.264C156.585 137.813 157.972 136.64 159.679 135.744C161.428 134.805 163.348 134.101 165.439 133.632C167.572 133.12 169.705 132.821 171.839 132.736V129.408C171.839 128.299 171.689 127.296 171.391 126.4C171.135 125.504 170.665 124.8 169.983 124.288C169.343 123.776 168.425 123.541 167.231 123.584C166.42 123.627 165.631 123.797 164.863 124.096C164.095 124.395 163.433 124.821 162.879 125.376C163.22 125.76 163.433 126.187 163.519 126.656C163.604 127.083 163.647 127.467 163.647 127.808C163.647 128.661 163.305 129.557 162.623 130.496C161.94 131.392 160.852 131.819 159.359 131.776C158.079 131.733 157.097 131.285 156.415 130.432C155.732 129.579 155.391 128.576 155.391 127.424C155.391 125.717 155.988 124.245 157.183 123.008C158.42 121.728 160.063 120.747 162.111 120.064C164.159 119.339 166.42 118.976 168.895 118.976C172.649 118.976 175.551 119.957 177.599 121.92C179.689 123.84 180.735 126.933 180.735 131.2C180.735 132.651 180.735 133.888 180.735 134.912C180.735 135.936 180.713 136.96 180.671 137.984C180.671 139.008 180.671 140.245 180.671 141.696C180.671 142.293 180.649 143.147 180.607 144.256C180.564 145.323 180.5 146.347 180.415 147.328C181.14 147.243 181.908 147.2 182.719 147.2C183.529 147.157 184.148 147.136 184.575 147.136V152H172.479ZM171.775 137.28C170.58 137.408 169.449 137.621 168.383 137.92C167.316 138.219 166.377 138.624 165.567 139.136C164.799 139.648 164.18 140.267 163.711 140.992C163.284 141.717 163.071 142.528 163.071 143.424C163.113 144.619 163.497 145.472 164.223 145.984C164.948 146.496 165.78 146.752 166.719 146.752C167.7 146.752 168.617 146.539 169.471 146.112C170.324 145.685 171.092 145.131 171.775 144.448C171.775 144.021 171.775 143.616 171.775 143.232C171.775 142.805 171.775 142.379 171.775 141.952C171.775 141.184 171.775 140.416 171.775 139.648C171.775 138.837 171.775 138.048 171.775 137.28ZM202.969 153.024C201.134 153.024 199.342 152.789 197.593 152.32C195.844 151.851 194.478 151.253 193.497 150.528L193.625 152.448H188.761L188.505 141.44H192.665C192.793 142.72 193.305 143.893 194.201 144.96C195.097 146.027 196.27 146.88 197.721 147.52C199.172 148.117 200.793 148.416 202.585 148.416C203.31 148.416 203.993 148.309 204.633 148.096C205.316 147.883 205.87 147.541 206.297 147.072C206.766 146.56 207.001 145.941 207.001 145.216C207.001 144.405 206.702 143.744 206.105 143.232C205.55 142.72 204.718 142.229 203.609 141.76C202.542 141.291 201.198 140.757 199.577 140.16C198.254 139.648 196.91 139.115 195.545 138.56C194.222 138.005 192.985 137.344 191.833 136.576C190.724 135.765 189.828 134.784 189.145 133.632C188.462 132.437 188.121 130.987 188.121 129.28C188.121 128.043 188.356 126.827 188.825 125.632C189.294 124.395 190.02 123.285 191.001 122.304C191.982 121.28 193.22 120.469 194.713 119.872C196.249 119.275 198.062 118.976 200.153 118.976C201.305 118.976 202.606 119.168 204.057 119.552C205.55 119.893 206.809 120.427 207.833 121.152V119.296H212.697V130.624H208.537C208.281 129.131 207.748 127.851 206.937 126.784C206.169 125.717 205.166 124.907 203.929 124.352C202.692 123.755 201.305 123.456 199.769 123.456C198.702 123.456 197.721 123.712 196.825 124.224C195.972 124.736 195.545 125.611 195.545 126.848C195.545 127.829 195.886 128.619 196.569 129.216C197.252 129.771 198.19 130.24 199.385 130.624C200.58 131.008 201.902 131.456 203.353 131.968C205.529 132.693 207.449 133.547 209.113 134.528C210.82 135.509 212.164 136.704 213.145 138.112C214.126 139.477 214.617 141.163 214.617 143.168C214.617 145.387 214.062 147.221 212.953 148.672C211.844 150.123 210.393 151.211 208.601 151.936C206.852 152.661 204.974 153.024 202.969 153.024ZM234.48 153.024C231.365 153.024 228.613 152.341 226.224 150.976C223.834 149.568 221.978 147.605 220.656 145.088C219.333 142.528 218.672 139.52 218.672 136.064C218.672 133.077 219.333 130.283 220.656 127.68C221.978 125.077 223.834 122.987 226.224 121.408C228.656 119.787 231.472 118.976 234.672 118.976C236.464 118.976 238.213 119.232 239.92 119.744C241.626 120.213 243.162 121.045 244.528 122.24C245.936 123.435 247.045 125.056 247.856 127.104C248.709 129.152 249.114 131.712 249.072 134.784L228.08 135.168C228.08 137.472 228.357 139.541 228.912 141.376C229.509 143.211 230.469 144.661 231.792 145.728C233.114 146.795 234.885 147.328 237.104 147.328C237.957 147.328 238.917 147.179 239.984 146.88C241.093 146.581 242.202 146.091 243.312 145.408C244.464 144.683 245.53 143.723 246.512 142.528L249.392 145.216C247.856 147.392 246.213 149.056 244.464 150.208C242.714 151.317 240.965 152.064 239.216 152.448C237.509 152.832 235.93 153.024 234.48 153.024ZM228.464 130.688H240.24C240.197 128.896 239.941 127.488 239.472 126.464C239.045 125.397 238.448 124.629 237.68 124.16C236.912 123.691 236.016 123.456 234.992 123.456C233.114 123.456 231.642 124.139 230.576 125.504C229.509 126.827 228.805 128.555 228.464 130.688ZM285.282 153.024C283.447 153.024 281.655 152.789 279.906 152.32C278.156 151.851 276.791 151.253 275.81 150.528L275.938 152.448H271.074L270.818 141.44H274.978C275.106 142.72 275.618 143.893 276.514 144.96C277.41 146.027 278.583 146.88 280.034 147.52C281.484 148.117 283.106 148.416 284.898 148.416C285.623 148.416 286.306 148.309 286.946 148.096C287.628 147.883 288.183 147.541 288.61 147.072C289.079 146.56 289.314 145.941 289.314 145.216C289.314 144.405 289.015 143.744 288.418 143.232C287.863 142.72 287.031 142.229 285.922 141.76C284.855 141.291 283.511 140.757 281.89 140.16C280.567 139.648 279.223 139.115 277.858 138.56C276.535 138.005 275.298 137.344 274.146 136.576C273.036 135.765 272.14 134.784 271.458 133.632C270.775 132.437 270.434 130.987 270.434 129.28C270.434 128.043 270.668 126.827 271.138 125.632C271.607 124.395 272.332 123.285 273.314 122.304C274.295 121.28 275.532 120.469 277.026 119.872C278.562 119.275 280.375 118.976 282.466 118.976C283.618 118.976 284.919 119.168 286.37 119.552C287.863 119.893 289.122 120.427 290.146 121.152V119.296H295.01V130.624H290.85C290.594 129.131 290.06 127.851 289.25 126.784C288.482 125.717 287.479 124.907 286.242 124.352C285.004 123.755 283.618 123.456 282.082 123.456C281.015 123.456 280.034 123.712 279.138 124.224C278.284 124.736 277.858 125.611 277.858 126.848C277.858 127.829 278.199 128.619 278.882 129.216C279.564 129.771 280.503 130.24 281.698 130.624C282.892 131.008 284.215 131.456 285.666 131.968C287.842 132.693 289.762 133.547 291.426 134.528C293.132 135.509 294.476 136.704 295.458 138.112C296.439 139.477 296.93 141.163 296.93 143.168C296.93 145.387 296.375 147.221 295.266 148.672C294.156 150.123 292.706 151.211 290.914 151.936C289.164 152.661 287.287 153.024 285.282 153.024ZM314.296 153.024C313.016 153.024 311.779 152.875 310.584 152.576C309.432 152.277 308.365 151.723 307.384 150.912C306.445 150.059 305.699 148.821 305.144 147.2C304.589 145.579 304.312 143.424 304.312 140.736L304.44 125.312H300.088V120C301.411 119.957 302.691 119.509 303.928 118.656C305.165 117.803 306.211 116.693 307.064 115.328C307.96 113.963 308.557 112.533 308.856 111.04H313.592L313.528 120H321.656V124.928L313.528 125.12L313.464 140.864C313.464 141.845 313.549 142.827 313.72 143.808C313.933 144.747 314.317 145.536 314.872 146.176C315.427 146.773 316.237 147.072 317.304 147.072C317.901 147.072 318.712 146.859 319.736 146.432C320.803 146.005 321.933 144.939 323.128 143.232L326.2 146.112C325.048 147.819 323.853 149.141 322.616 150.08C321.379 151.019 320.184 151.701 319.032 152.128C317.923 152.555 316.941 152.811 316.088 152.896C315.235 152.981 314.637 153.024 314.296 153.024ZM341.31 153.024C338.75 153.024 336.68 152.533 335.102 151.552C333.566 150.571 332.435 149.035 331.71 146.944C331.027 144.853 330.686 142.165 330.686 138.88V131.52C330.686 130.752 330.707 129.877 330.75 128.896C330.792 127.872 330.835 126.891 330.878 125.952C330.195 125.995 329.384 126.037 328.446 126.08C327.55 126.08 326.867 126.101 326.398 126.144V121.28H327.038C329.683 121.28 331.774 121.067 333.31 120.64C334.846 120.213 335.827 119.787 336.254 119.36H339.774V138.944C339.774 141.717 340.136 143.787 340.862 145.152C341.587 146.475 342.739 147.136 344.318 147.136C345.427 147.136 346.536 146.837 347.646 146.24C348.798 145.6 349.736 144.875 350.462 144.064V131.52C350.462 130.752 350.483 129.877 350.526 128.896C350.568 127.872 350.632 126.891 350.718 125.952C350.035 125.995 349.224 126.037 348.286 126.08C347.39 126.08 346.707 126.101 346.238 126.144V121.28H347.774C349.779 121.28 351.55 121.067 353.086 120.64C354.622 120.171 355.603 119.744 356.03 119.36H359.55V141.696C359.55 142.293 359.528 143.147 359.486 144.256C359.443 145.323 359.379 146.347 359.294 147.328C359.976 147.243 360.723 147.2 361.534 147.2C362.387 147.157 363.027 147.136 363.454 147.136V152H351.294C351.251 151.445 351.187 150.891 351.102 150.336C351.059 149.781 350.995 149.227 350.91 148.672C349.587 149.781 348.158 150.784 346.622 151.68C345.128 152.576 343.358 153.024 341.31 153.024ZM379.976 153.024C377.416 153.024 375.155 152.363 373.192 151.04C371.272 149.717 369.757 147.84 368.648 145.408C367.581 142.976 367.048 140.117 367.048 136.832C367.048 133.376 367.709 130.304 369.032 127.616C370.355 124.928 372.211 122.816 374.6 121.28C376.989 119.744 379.763 118.976 382.92 118.976C384.072 118.976 385.096 119.104 385.992 119.36C386.931 119.573 387.805 119.829 388.616 120.128V115.904C388.616 115.307 388.637 114.453 388.68 113.344C388.723 112.235 388.787 111.211 388.872 110.272C388.189 110.315 387.379 110.357 386.44 110.4C385.501 110.443 384.797 110.464 384.328 110.464V105.6C386.333 105.6 387.997 105.493 389.32 105.28C390.685 105.067 391.752 104.811 392.52 104.512C393.331 104.213 393.885 103.936 394.184 103.68H397.64V141.696C397.64 142.293 397.619 143.147 397.576 144.256C397.533 145.323 397.469 146.347 397.384 147.328C398.109 147.243 398.877 147.2 399.688 147.2C400.499 147.157 401.117 147.136 401.544 147.136V152H389.384C389.341 151.531 389.277 151.04 389.192 150.528C389.149 150.016 389.085 149.525 389 149.056C387.592 150.507 386.141 151.531 384.648 152.128C383.155 152.725 381.597 153.024 379.976 153.024ZM383.304 147.2C384.413 147.2 385.437 146.923 386.376 146.368C387.315 145.771 388.061 145.024 388.616 144.128C388.616 143.488 388.616 142.848 388.616 142.208C388.616 141.568 388.616 140.928 388.616 140.288V124.928C388.189 124.587 387.549 124.309 386.696 124.096C385.843 123.84 384.968 123.712 384.072 123.712C382.109 123.755 380.573 124.373 379.464 125.568C378.355 126.763 377.565 128.277 377.096 130.112C376.669 131.947 376.456 133.867 376.456 135.872C376.456 137.664 376.669 139.435 377.096 141.184C377.565 142.933 378.291 144.384 379.272 145.536C380.296 146.645 381.64 147.2 383.304 147.2ZM405.749 147.84C406.944 147.84 407.797 147.605 408.309 147.136C408.821 146.667 409.141 146.005 409.269 145.152C409.44 144.256 409.525 143.253 409.525 142.144V131.52C409.525 130.752 409.546 129.877 409.589 128.896C409.632 127.872 409.696 126.891 409.781 125.952C409.098 125.995 408.288 126.037 407.349 126.08C406.453 126.08 405.77 126.101 405.301 126.144V121.28C407.264 121.28 408.928 121.173 410.293 120.96C411.658 120.747 412.725 120.491 413.493 120.192C414.304 119.893 414.858 119.616 415.157 119.36H418.613V141.696C418.613 142.293 418.592 143.147 418.549 144.256C418.506 145.323 418.442 146.347 418.357 147.328C419.04 147.243 419.786 147.2 420.597 147.2C421.45 147.157 422.09 147.136 422.517 147.136V152H405.749V147.84ZM413.749 114.304C412.298 114.304 411.104 113.792 410.165 112.768C409.226 111.744 408.757 110.507 408.757 109.056C408.757 107.605 409.248 106.368 410.229 105.344C411.21 104.32 412.362 103.808 413.685 103.808C415.05 103.808 416.181 104.32 417.077 105.344C418.016 106.368 418.485 107.605 418.485 109.056C418.485 110.507 418.058 111.744 417.205 112.768C416.352 113.792 415.2 114.304 413.749 114.304ZM441.855 153.024C438.74 153.024 435.988 152.341 433.599 150.976C431.209 149.568 429.353 147.605 428.031 145.088C426.708 142.528 426.047 139.52 426.047 136.064C426.047 133.077 426.708 130.283 428.031 127.68C429.353 125.077 431.209 122.987 433.599 121.408C436.031 119.787 438.847 118.976 442.047 118.976C443.839 118.976 445.588 119.232 447.295 119.744C449.001 120.213 450.537 121.045 451.903 122.24C453.311 123.435 454.42 125.056 455.231 127.104C456.084 129.152 456.489 131.712 456.447 134.784L435.455 135.168C435.455 137.472 435.732 139.541 436.287 141.376C436.884 143.211 437.844 144.661 439.167 145.728C440.489 146.795 442.26 147.328 444.479 147.328C445.332 147.328 446.292 147.179 447.359 146.88C448.468 146.581 449.577 146.091 450.687 145.408C451.839 144.683 452.905 143.723 453.887 142.528L456.767 145.216C455.231 147.392 453.588 149.056 451.839 150.208C450.089 151.317 448.34 152.064 446.591 152.448C444.884 152.832 443.305 153.024 441.855 153.024ZM435.839 130.688H447.615C447.572 128.896 447.316 127.488 446.847 126.464C446.42 125.397 445.823 124.629 445.055 124.16C444.287 123.691 443.391 123.456 442.367 123.456C440.489 123.456 439.017 124.139 437.951 125.504C436.884 126.827 436.18 128.555 435.839 130.688ZM475.844 153.024C474.009 153.024 472.217 152.789 470.468 152.32C468.719 151.851 467.353 151.253 466.372 150.528L466.5 152.448H461.636L461.38 141.44H465.54C465.668 142.72 466.18 143.893 467.076 144.96C467.972 146.027 469.145 146.88 470.596 147.52C472.047 148.117 473.668 148.416 475.46 148.416C476.185 148.416 476.868 148.309 477.508 148.096C478.191 147.883 478.745 147.541 479.172 147.072C479.641 146.56 479.876 145.941 479.876 145.216C479.876 144.405 479.577 143.744 478.98 143.232C478.425 142.72 477.593 142.229 476.484 141.76C475.417 141.291 474.073 140.757 472.452 140.16C471.129 139.648 469.785 139.115 468.42 138.56C467.097 138.005 465.86 137.344 464.708 136.576C463.599 135.765 462.703 134.784 462.02 133.632C461.337 132.437 460.996 130.987 460.996 129.28C460.996 128.043 461.231 126.827 461.7 125.632C462.169 124.395 462.895 123.285 463.876 122.304C464.857 121.28 466.095 120.469 467.588 119.872C469.124 119.275 470.937 118.976 473.028 118.976C474.18 118.976 475.481 119.168 476.932 119.552C478.425 119.893 479.684 120.427 480.708 121.152V119.296H485.572V130.624H481.412C481.156 129.131 480.623 127.851 479.812 126.784C479.044 125.717 478.041 124.907 476.804 124.352C475.567 123.755 474.18 123.456 472.644 123.456C471.577 123.456 470.596 123.712 469.7 124.224C468.847 124.736 468.42 125.611 468.42 126.848C468.42 127.829 468.761 128.619 469.444 129.216C470.127 129.771 471.065 130.24 472.26 130.624C473.455 131.008 474.777 131.456 476.228 131.968C478.404 132.693 480.324 133.547 481.988 134.528C483.695 135.509 485.039 136.704 486.02 138.112C487.001 139.477 487.492 141.163 487.492 143.168C487.492 145.387 486.937 147.221 485.828 148.672C484.719 150.123 483.268 151.211 481.476 151.936C479.727 152.661 477.849 153.024 475.844 153.024Z" fill="white"/>
</svg>
